<?xml version="1.0" encoding="UTF-8"?>
<svg version="1.1" xmlns="http://www.w3.org/2000/svg" width="806" height="863">
<path d="M0 0 C265.98 0 531.96 0 806 0 C806 284.79 806 569.58 806 863 C540.02 863 274.04 863 0 863 C0 578.21 0 293.42 0 0 Z " fill="#FEFEFE" transform="translate(0,0)"/>
<path d="M0 0 C0.81597656 -0.02900391 1.63195312 -0.05800781 2.47265625 -0.08789062 C8.27742926 -0.14845407 11.79893646 0.96072751 16.5 4.3125 C17.0882959 4.713479 17.6765918 5.11445801 18.28271484 5.52758789 C20.18067033 6.83397611 22.05855403 8.16644803 23.9375 9.5 C34.63878869 16.95778979 45.6863902 23.49638531 57.85546875 28.26953125 C60.20929395 29.19784931 62.46714956 30.2248142 64.75 31.3125 C100.50752746 46.92494157 150.44094007 48.11401921 186.9375 34.4375 C188.79392291 33.67885621 190.65036693 32.92001184 192.49755859 32.13916016 C194.75925457 31.20547294 197.04113294 30.33994998 199.33203125 29.48046875 C200.1506665 29.17157715 200.96930176 28.86268555 201.81274414 28.54443359 C203.39565732 27.94729335 204.97943349 27.35243397 206.56420898 26.76025391 C209.60750637 25.59004461 212.14767342 24.57795985 214.765625 22.60546875 C216.5 21.3125 216.5 21.3125 220.5 21.3125 C220.5 20.6525 220.5 19.9925 220.5 19.3125 C222.74561243 17.85179124 224.98523727 16.50648675 227.3125 15.1875 C232.26311864 12.3205204 236.94241172 9.35198855 241.5 5.875 C252.62672621 -2.31935327 266.00170889 -0.24366702 279.0859375 1.6796875 C284.16996239 2.62203536 288.76301572 4.20617111 293.5390625 6.13671875 C298.24679174 7.99981623 302.44557479 8.86121203 307.5 9.3125 C307.5 9.9725 307.5 10.6325 307.5 11.3125 C308.17804687 11.41046875 308.85609375 11.5084375 309.5546875 11.609375 C319.219607 13.16218755 327.10504287 16.40224206 335.5 21.3125 C337.82481174 22.33215427 340.15794699 23.33309602 342.5 24.3125 C347.5495372 26.72653314 352.36406766 29.48253107 357.1875 32.3125 C357.94611328 32.75078125 358.70472656 33.1890625 359.48632812 33.640625 C360.21658203 34.06859375 360.94683594 34.4965625 361.69921875 34.9375 C362.35752686 35.32164062 363.01583496 35.70578125 363.6940918 36.1015625 C365.5 37.3125 365.5 37.3125 367.06958008 38.88671875 C368.9679128 40.77889542 370.99813447 41.43346617 373.5 42.3125 C373.5 42.9725 373.5 43.6325 373.5 44.3125 C374.18964844 44.54066406 374.87929688 44.76882813 375.58984375 45.00390625 C379.16028217 46.6094054 382.03250692 48.8162232 385.0625 51.25 C385.6723877 51.73436523 386.28227539 52.21873047 386.91064453 52.71777344 C392.08786176 56.87834905 396.9941061 61.29311498 401.8359375 65.8359375 C404.01160937 67.8584829 406.22164473 69.78418264 408.5 71.6875 C435.6518789 95.35404455 458.0489333 130.89467953 469.5625 164.75 C469.81507568 165.4831543 470.06765137 166.21630859 470.32788086 166.97167969 C470.82885602 168.42877161 471.32772235 169.88659073 471.82421875 171.34521484 C472.39724253 173.01335994 472.99304398 174.67365356 473.59375 176.33203125 C478.52618942 190.23435043 481.39594364 204.78232775 483.75 219.3125 C483.91306641 220.31369873 484.07613281 221.31489746 484.24414062 222.34643555 C486.1396914 234.59592829 486.6681523 246.80069499 486.73828125 259.18359375 C486.74235678 259.87340899 486.7464323 260.56322422 486.75063133 261.27394295 C486.77132793 264.93954264 486.78568815 268.60510695 486.79516602 272.27075195 C486.80392806 275.22669713 486.82459009 278.18215711 486.85668945 281.13793945 C487.62253715 353.33528468 465.59233627 426.01889896 416.5 480.3125 C416.00226074 480.86518555 415.50452148 481.41787109 414.99169922 481.98730469 C411.97064128 485.32930862 408.91215333 488.63247074 405.81787109 491.90673828 C404.68116776 493.11924991 403.56686313 494.3526889 402.45703125 495.58984375 C394.07001783 504.62063645 382.2636226 511.68872152 370.5 515.3125 C369.18 515.3125 367.86 515.3125 366.5 515.3125 C366.5 515.9725 366.5 516.6325 366.5 517.3125 C354.02763222 522.5320287 336.63476018 520.43924585 324.17578125 515.921875 C310.21462665 510.17168074 300.38690003 497.99690255 294.2421875 484.5625 C289.61199273 472.12896999 289.04808057 455.28697211 294.12890625 442.9453125 C298.8284078 433.92119841 305.06464201 426.3123188 311.50732422 418.51000977 C317.31850572 411.42130536 322.4869261 403.98037504 327.5 396.3125 C327.99918945 395.55001953 328.49837891 394.78753906 329.01269531 394.00195312 C355.09219717 353.94253021 372.3612345 308.34484352 362.6015625 259.85546875 C359.22229551 245.15921106 353.73041034 231.50236455 346.5 218.3125 C345.67048828 216.73082031 345.67048828 216.73082031 344.82421875 215.1171875 C340.35958718 206.95511643 334.70300534 200.18309335 328.5 193.3125 C327.91605469 192.65636719 327.33210937 192.00023437 326.73046875 191.32421875 C318.43122254 182.52071454 308.2602282 175.32677328 297.6328125 169.65234375 C296.92898438 169.21019531 296.22515625 168.76804687 295.5 168.3125 C295.5 167.6525 295.5 166.9925 295.5 166.3125 C294.81292969 166.11914062 294.12585938 165.92578125 293.41796875 165.7265625 C292.51691406 165.46617187 291.61585938 165.20578125 290.6875 164.9375 C289.79417969 164.68226563 288.90085937 164.42703125 287.98046875 164.1640625 C285.5 163.3125 285.5 163.3125 282.5 161.3125 C280.45415921 160.65091957 280.45415921 160.65091957 278.3125 160.1875 C277.054375 159.89875 275.79625 159.61 274.5 159.3125 C274.5 158.6525 274.5 157.9925 274.5 157.3125 C267.24 156.3225 259.98 155.3325 252.5 154.3125 C252.5 153.6525 252.5 152.9925 252.5 152.3125 C248.37386703 152.43175905 244.2479182 152.5560612 240.12207031 152.68481445 C238.72172048 152.72783026 237.32132936 152.76952493 235.92089844 152.80981445 C222.86703715 152.84049365 222.86703715 152.84049365 210.25 155.6875 C197.17241379 160.3125 197.17241379 160.3125 190.5 160.3125 C190.5 160.9725 190.5 161.6325 190.5 162.3125 C187.2 163.3025 183.9 164.2925 180.5 165.3125 C180.5 165.9725 180.5 166.6325 180.5 167.3125 C179.5925 167.621875 178.685 167.93125 177.75 168.25 C164.40208767 173.99364712 149.35424035 187.79546124 140.87109375 199.57421875 C140.19240234 200.43466797 140.19240234 200.43466797 139.5 201.3125 C138.84 201.3125 138.18 201.3125 137.5 201.3125 C137.5 201.9725 137.5 202.6325 137.5 203.3125 C133.78870831 205.16814584 129.55105767 204.75618727 125.5 204.3125 C121.31631007 201.97741725 118.53277511 198.1110414 115.42578125 194.51171875 C105.42235898 183.08793226 93.72478839 175.05249548 80.75 167.375 C79.98252441 166.91432129 79.21504883 166.45364258 78.42431641 165.97900391 C72.98017109 162.83497216 67.58315655 160.87475795 61.5 159.3125 C61.5 158.6525 61.5 157.9925 61.5 157.3125 C60.82195312 157.19132813 60.14390625 157.07015625 59.4453125 156.9453125 C58.51460938 156.77773438 57.58390625 156.61015625 56.625 156.4375 C55.26761719 156.19386719 55.26761719 156.19386719 53.8828125 155.9453125 C52.06367551 155.60501205 50.24562334 155.25008631 48.44824219 154.80908203 C40.51945798 152.96058249 32.59749982 152.91597016 24.5 152.9375 C23.40250427 152.93781723 23.40250427 152.93781723 22.28283691 152.93814087 C6.73909777 152.98300229 -6.63572137 155.27043039 -20.99609375 161.359375 C-23.5 162.3125 -23.5 162.3125 -26.5 162.3125 C-26.5 162.9725 -26.5 163.6325 -26.5 164.3125 C-27.69625 164.786875 -28.8925 165.26125 -30.125 165.75 C-42.30841298 171.21152996 -52.65827822 179.42705888 -62.5 188.3125 C-63.23863281 188.97894531 -63.97726563 189.64539063 -64.73828125 190.33203125 C-77.6534045 202.62598625 -87.88793314 218.81713321 -94.5 235.3125 C-95.12841797 236.85744141 -95.12841797 236.85744141 -95.76953125 238.43359375 C-109.6510621 274.71010186 -107.89868529 317.80201363 -92.09765625 353.20703125 C-89.26871278 358.70583334 -86.2497795 364.10742351 -83.15722656 369.4621582 C-82.68639648 370.2893335 -82.21556641 371.11650879 -81.73046875 371.96875 C-81.30145264 372.70931641 -80.87243652 373.44988281 -80.43041992 374.21289062 C-79.5 376.3125 -79.5 376.3125 -79.5 380.3125 C-78.84 380.3125 -78.18 380.3125 -77.5 380.3125 C-76.421875 381.74267578 -76.421875 381.74267578 -75.25 383.7578125 C-74.81187988 384.49789551 -74.37375977 385.23797852 -73.92236328 386.00048828 C-73.4529834 386.80470215 -72.98360352 387.60891602 -72.5 388.4375 C-64.80075895 401.30323734 -56.12736107 412.97545473 -46.578125 424.5234375 C-40.86026288 431.50789162 -36.38852988 437.68857185 -33.5 446.3125 C-33.273125 446.95832031 -33.04625 447.60414063 -32.8125 448.26953125 C-30.92419671 454.49830947 -31.26601648 460.87015364 -31.5 467.3125 C-31.51804688 468.17101562 -31.53609375 469.02953125 -31.5546875 469.9140625 C-32.27408792 482.90558775 -38.974435 496.8471534 -48.5546875 505.66015625 C-49.51761719 506.47806641 -49.51761719 506.47806641 -50.5 507.3125 C-51.18320313 507.90933594 -51.86640625 508.50617188 -52.5703125 509.12109375 C-62.94026581 517.29402305 -77.26146546 520.88229845 -90.33007812 519.59033203 C-121.56857254 515.59062381 -141.51718681 499.07128093 -160.4375 474.75 C-160.9109082 474.12939697 -161.38431641 473.50879395 -161.87207031 472.86938477 C-164.25630539 469.60533641 -164.25630539 469.60533641 -167.5 467.3125 C-168.38180774 465.76051838 -169.25842714 464.20547722 -170.1171875 462.640625 C-171.83120013 459.75488623 -173.75007101 457.0532532 -175.6875 454.3125 C-182.23180374 445.01456721 -187.87556853 435.18418733 -193.5 425.3125 C-193.95503906 424.53003906 -194.41007812 423.74757813 -194.87890625 422.94140625 C-197.22801271 418.84016098 -199.16654266 414.83884514 -200.71191406 410.37353516 C-201.56193591 408.02744424 -201.56193591 408.02744424 -203.328125 404.84375 C-206.08297459 399.41020728 -207.83436133 393.66388535 -209.6875 387.875 C-210.38672596 385.70879543 -211.088411 383.54338253 -211.79296875 381.37890625 C-212.0974292 380.42959229 -212.40188965 379.48027832 -212.71557617 378.50219727 C-213.30537278 376.36472323 -213.30537278 376.36472323 -214.5 375.3125 C-215.03869515 372.66879499 -215.53613565 370.03188641 -216 367.375 C-216.76474372 362.19672235 -216.76474372 362.19672235 -218.5 357.3125 C-218.73503871 355.17538874 -218.8806795 353.03965798 -219.0234375 350.89453125 C-219.42130007 348.14926587 -219.42130007 348.14926587 -220.92578125 345.20019531 C-228.91775031 326.74678498 -225.96258324 302.27372003 -225.89111328 282.58813477 C-225.87393754 277.8123572 -225.88395269 273.03708265 -225.90183067 268.26132298 C-225.91275384 264.52827773 -225.90918486 260.79534877 -225.9014473 257.06229973 C-225.89947328 255.30235672 -225.90180372 253.54240248 -225.90888596 251.78247261 C-225.93947226 242.06203628 -225.4182119 233.03427873 -223.19107056 223.55210876 C-222.4976179 220.30133318 -222.18628214 217.19016731 -222 213.875 C-221.7254891 209.59148623 -220.93417395 206.32288064 -219.22363281 202.4128418 C-218.43321358 200.11865264 -218.25136273 198.16875598 -218.109375 195.75 C-217.59799028 190.0231199 -216.06181302 184.87437019 -214.25 179.4375 C-213.93498535 178.47223389 -213.6199707 177.50696777 -213.29541016 176.51245117 C-211.01771478 169.63010191 -208.50642421 162.9126962 -205.5 156.3125 C-205.09007812 155.38566406 -204.68015625 154.45882812 -204.2578125 153.50390625 C-201.51042417 147.35214543 -198.55956765 141.31446037 -195.5 135.3125 C-194.84 135.3125 -194.18 135.3125 -193.5 135.3125 C-193.40332031 134.07306641 -193.40332031 134.07306641 -193.3046875 132.80859375 C-192.26575588 128.29478889 -190.19232714 125.18100352 -187.625 121.375 C-187.13467285 120.63427246 -186.6443457 119.89354492 -186.13916016 119.13037109 C-162.03485672 83.03931222 -131.82179136 53.074983 -94.5 30.75 C-93.83057373 30.34450928 -93.16114746 29.93901855 -92.47143555 29.52124023 C-88.20693209 27.03330515 -84.0339128 25.36782602 -79.28515625 24.00805664 C-77.29555077 23.46280166 -77.29555077 23.46280166 -76.5 21.3125 C-73.48974518 20.20899013 -70.46723716 19.26560286 -67.3984375 18.34375 C-63.38555916 17.08574449 -60.04544536 15.51501149 -56.41601562 13.33837891 C-52.58318865 11.28619504 -48.43432753 10.03288053 -44.3125 8.6875 C-43.38501953 8.38046143 -42.45753906 8.07342285 -41.50195312 7.75708008 C-35.6733112 5.87682374 -29.97704209 4.39841107 -23.875 3.69921875 C-21.44802886 3.39671254 -21.44802886 3.39671254 -19.125 2.33203125 C-13.04461001 -0.02954879 -6.44399634 0.07635067 0 0 Z " fill="#C777FD" transform="translate(273.5,315.6875)"/>
<path d="M0 0 C0 0.66 0 1.32 0 2 C0.72445312 2.26296875 1.44890625 2.5259375 2.1953125 2.796875 C21.85323865 11.22952298 37.05585138 32.54103791 44.9375 51.8125 C46.73695532 56.32172334 48.28196433 60.79561075 49.5 65.5 C51.49953093 72.73287116 56.81098013 78.87398676 63 83 C69.04991881 85.0166396 75.89175201 85.13369476 81.90234375 82.94140625 C91.34877853 77.69970033 93.9363116 70.36316093 97.42553711 60.62841797 C102.48642397 46.88835399 109.71835089 34.30410961 119 23 C119.70382812 22.06929687 120.40765625 21.13859375 121.1328125 20.1796875 C121.74898437 19.46039062 122.36515625 18.74109375 123 18 C123.66 18 124.32 18 125 18 C125.18949219 17.45472656 125.37898437 16.90945313 125.57421875 16.34765625 C127.66970682 12.89727726 130.62674599 10.85867305 133.8125 8.4375 C134.42931641 7.95603516 135.04613281 7.47457031 135.68164062 6.97851562 C144.7143548 0 144.7143548 0 150 0 C150 -0.66 150 -1.32 150 -2 C151.89453221 -2.64964023 153.79068649 -3.29455115 155.6875 -3.9375 C156.74324219 -4.29714844 157.79898437 -4.65679688 158.88671875 -5.02734375 C176.12267323 -10.4122279 194.58775869 -7.48229662 211 -1 C211.99 -0.67 212.98 -0.34 214 0 C214.33 0.66 214.66 1.32 215 2 C216.155 2.556875 217.31 3.11375 218.5 3.6875 C236.49683259 12.44617163 249.03244127 29.49780757 255.72485352 47.94726562 C262.85763469 69.13668045 263.79417125 92.60918266 257 114 C256.80164551 114.66837891 256.60329102 115.33675781 256.39892578 116.02539062 C248.50217672 142.43583857 232.32645208 165.8859049 215 187 C214.22011719 187.97195313 213.44023438 188.94390625 212.63671875 189.9453125 C208.36036364 195.24828827 203.94352069 200.38923238 199.34741211 205.41748047 C197.93178885 206.9748869 196.52471993 208.54021822 195.13452148 210.12036133 C188.57833969 217.55277916 181.61987768 224.56626808 174.61352539 231.57177734 C172.53699234 233.65053499 170.46863759 235.73722045 168.40039062 237.82421875 C167.08121695 239.14632021 165.7615732 240.46795286 164.44140625 241.7890625 C163.51492027 242.72632675 163.51492027 242.72632675 162.56971741 243.68252563 C158.22887123 248 158.22887123 248 156 248 C156 248.66 156 249.32 156 250 C154.390625 251.65625 154.390625 251.65625 152.25 253.5 C151.55390625 254.1084375 150.8578125 254.716875 150.140625 255.34375 C148.15539208 256.87976963 146.28127955 257.9723966 144 259 C144 259.66 144 260.32 144 261 C142.7421875 262.3046875 142.7421875 262.3046875 140.875 263.875 C140.14796875 264.49375 139.4209375 265.1125 138.671875 265.75 C137.79015625 266.4925 136.9084375 267.235 136 268 C133.70491463 269.95434263 131.41493295 271.91462484 129.125 273.875 C128.51873779 274.39263916 127.91247559 274.91027832 127.2878418 275.44360352 C123.7024673 278.512323 120.17374433 281.63082616 116.6875 284.8125 C113.10865412 288.06072317 109.41993768 291.0465795 105.5703125 293.96484375 C101.52270439 297.16971278 97.65292751 300.58348472 93.78417969 304.0012207 C91.20822891 306.24815035 89.27711443 307.90762852 86 309 C86 309.66 86 310.32 86 311 C78.33442857 313.92855164 70.194912 314.048728 62.25 312.0625 C58.30959304 309.56185712 55.05589617 306.62878559 51.65234375 303.4453125 C49.11155769 301.10284995 46.50341797 298.91712858 43.8125 296.75 C38.67352465 292.58953195 33.67607119 288.28509606 28.69311523 283.94067383 C25.14878143 280.85335482 21.58327591 277.79659085 17.97875977 274.77978516 C11.78352835 269.59461507 5.8191643 264.20339058 -0.08984375 258.6953125 C-2.3215394 256.6283729 -4.56907065 254.60720277 -6.875 252.625 C-18.20057633 242.76153701 -28.8740432 232.22850002 -39.5 221.625 C-40.06612 221.0614682 -40.63223999 220.4979364 -41.21551514 219.91732788 C-47.36001884 213.79497797 -53.42956364 207.65821781 -59 201 C-59.80775879 200.04432129 -59.80775879 200.04432129 -60.63183594 199.06933594 C-67.3091641 191.12500738 -73.81592905 183.0523096 -80.125 174.8125 C-80.65689941 174.11842041 -81.18879883 173.42434082 -81.73681641 172.70922852 C-90 161.83180177 -90 161.83180177 -90 159 C-90.66 159 -91.32 159 -92 159 C-92.39445312 158.02417969 -92.78890625 157.04835938 -93.1953125 156.04296875 C-95.09588134 151.60793677 -97.47894439 147.49386946 -99.875 143.3125 C-111.07347102 123.23923566 -116.26349445 102.31764284 -115.1015625 79.23876953 C-115.00466942 77.10292938 -114.976927 74.97761871 -114.96875 72.83984375 C-114.51252569 53.54535727 -106.32724682 35.64766975 -94 21 C-93.56558594 20.42121094 -93.13117188 19.84242188 -92.68359375 19.24609375 C-83.23367801 7.08814245 -68.35141806 -1.79250687 -53.203125 -3.7734375 C-52.47609375 -3.84820313 -51.7490625 -3.92296875 -51 -4 C-51 -4.66 -51 -5.32 -51 -6 C-34.49022656 -9.68072242 -15.00661162 -7.82090606 0 0 Z " fill="#D271FD" transform="translate(331,522)"/>
<path d="M0 0 C0.52287598 0.4242627 1.04575195 0.84852539 1.58447266 1.28564453 C16.37949659 13.3540283 28.15931911 26.59041099 38 43 C38.65742187 44.04994141 38.65742187 44.04994141 39.328125 45.12109375 C45.70008571 55.78807861 49.13518369 67.8920192 52.3125 79.8125 C52.69426392 81.22523193 52.69426392 81.22523193 53.08374023 82.66650391 C58.83930687 105.06559367 58.01607956 131.97561112 51 154 C50.66226562 155.13695312 50.32453125 156.27390625 49.9765625 157.4453125 C43.89165976 177.00684546 33.74690484 195.70982257 19.4453125 210.44921875 C16.98721757 212.92882619 16.98721757 212.92882619 14.98828125 215.56640625 C6.88329796 225.48665102 -6.63784823 234.19267798 -18 240 C-18.66 240 -19.32 240 -20 240 C-20 240.66 -20 241.32 -20 242 C-20.68964844 242.24234375 -21.37929688 242.4846875 -22.08984375 242.734375 C-26.53728508 244.32056807 -30.9200119 245.91127019 -35.1875 247.9375 C-39.26260558 249.77857448 -43.4376457 251.24602274 -47.6875 252.625 C-48.92886719 253.02976562 -50.17023438 253.43453125 -51.44921875 253.8515625 C-62.0886229 256.78622981 -72.98037017 257.32916116 -83.95898438 257.26074219 C-85.99899995 257.25000526 -88.03813547 257.26072424 -90.078125 257.2734375 C-98.90068613 257.28138862 -107.30781103 256.49057459 -116 255 C-116 254.34 -116 253.68 -116 253 C-117.13824219 253.05929687 -118.27648437 253.11859375 -119.44921875 253.1796875 C-124.32435127 253.16898468 -128.29921693 251.86789397 -132.8125 250.125 C-134.04093628 249.65743286 -134.04093628 249.65743286 -135.29418945 249.18041992 C-165.50022199 237.31427922 -189.50019932 217.31229361 -207 190 C-207.62390625 189.04222656 -208.2478125 188.08445313 -208.890625 187.09765625 C-212.50424034 181.32134688 -215.36300515 175.27538015 -218 169 C-218.46921875 167.88625 -218.9384375 166.7725 -219.421875 165.625 C-221.62849621 160.17043071 -223.31172054 155.95831546 -223 150 C-223.66 150 -224.32 150 -225 150 C-225.48423511 147.6884626 -225.96244112 145.37592629 -226.4375 143.0625 C-226.70433594 141.77472656 -226.97117187 140.48695313 -227.24609375 139.16015625 C-230.76243108 120.65877836 -229.935427 101.34190085 -226 83 C-225.34 83 -224.68 83 -224 83 C-224.06058594 81.86433594 -224.12117188 80.72867188 -224.18359375 79.55859375 C-224.17386389 74.63636576 -222.82562673 70.6162553 -221.0625 66.0625 C-220.74966064 65.23983643 -220.43682129 64.41717285 -220.11450195 63.56958008 C-212.93622356 45.24344413 -202.63108209 29.20381663 -189 15 C-188.18144531 14.11828125 -187.36289062 13.2365625 -186.51953125 12.328125 C-175.66496906 0.97652968 -161.66771172 -10.19668797 -147 -16 C-145.73701313 -16.63690992 -144.47825241 -17.2822349 -143.22265625 -17.93359375 C-99.05649124 -40.21794763 -37.75133682 -30.75407857 0 0 Z " fill="#A88CFD" transform="translate(490,56)"/>
<path d="M0 0 C0.66 0.33 1.32 0.66 2 1 C-6 9 -14 17 -22 25 C-22.66 24.67 -23.32 24.34 -24 24 C-16.44738134 15.4635733 -8.48510355 7.60826455 0 0 Z " fill="#DB8FFA" transform="translate(139,375)"/>
<path d="M0 0 C0.66 0.33 1.32 0.66 2 1 C-5.26 8.26 -12.52 15.52 -20 23 C-20.66 22.67 -21.32 22.34 -22 22 C-15.04822797 14.17421407 -7.88450894 6.89322639 0 0 Z " fill="#F5DFFB" transform="translate(221,494)"/>
<path d="M0 0 C0.66 0.33 1.32 0.66 2 1 C-3.94 6.94 -9.88 12.88 -16 19 C-16 14.68381834 -13.86729652 13.07210341 -11 10 C-10.34 10 -9.68 10 -9 10 C-8.74476563 9.40703125 -8.48953125 8.8140625 -8.2265625 8.203125 C-6.88183502 5.78775462 -5.50785633 4.48788294 -3.375 2.75 C-2.74335938 2.22921875 -2.11171875 1.7084375 -1.4609375 1.171875 C-0.73777344 0.59179688 -0.73777344 0.59179688 0 0 Z " fill="#CF99FA" transform="translate(465,530)"/>
<path d="M0 0 C0 3 0 3 -1.75 4.82421875 C-2.4925 5.43910156 -3.235 6.05398438 -4 6.6875 C-4.7425 7.31011719 -5.485 7.93273437 -6.25 8.57421875 C-6.8275 9.04472656 -7.405 9.51523437 -8 10 C-8.66 9.67 -9.32 9.34 -10 9 C-6.7 6.03 -3.4 3.06 0 0 Z " fill="#F5DFFC" transform="translate(455,799)"/>
</svg>
